<svg xmlns="http://www.w3.org/2000/svg" width="576" height="576" viewBox="0 0 576 576" version="1.1"><path d="M 416 66.500 L 416 67 416.500 67 L 417 67 417 66.500 L 417 66 416.500 66 L 416 66 416 66.500 M 418 66.500 L 418 67 418.500 67 L 419 67 419 66.500 L 419 66 418.500 66 L 418 66 418 66.500 M 413 67.500 L 413 68 413.500 68 L 414 68 414 67.500 L 414 67 413.500 67 L 413 67 413 67.500 M 414.333 74.667 L 415 75.333 415.667 74.667 L 416.333 74 415 74 L 413.667 74 414.333 74.667 M 443 75.500 L 443 76 443.500 76 L 444 76 444 75.500 L 444 75 443.500 75 L 443 75 443 75.500 M 425 76.500 L 425 77 425.500 77 L 426 77 426 76.500 L 426 76 425.500 76 L 425 76 425 76.500 M 439 82.500 L 439 83 439.500 83 L 440 83 440 82.500 L 440 82 439.500 82 L 439 82 439 82.500 M 441 84.500 L 441 85 441.500 85 L 442 85 442 84.500 L 442 84 441.500 84 L 441 84 441 84.500 M 423 85.500 L 423 86 423.500 86 L 424 86 424 85.500 L 424 85 423.500 85 L 423 85 423 85.500 M 410 87 L 410 88.333 410.667 87.667 L 411.333 87 410.667 86.333 L 410 85.667 410 87 M 446.500 89 L 447.118 90 447.618 90 L 448.118 90 447.500 89 L 446.882 88 446.382 88 L 445.882 88 446.500 89 M 411.500 90 L 412.118 91 412.618 91 L 413.118 91 412.500 90 L 411.882 89 411.382 89 L 410.882 89 411.500 90 M 459 91.500 L 459 92 459.500 92 L 460 92 460 91.500 L 460 91 459.500 91 L 459 91 459 91.500 M 429 96.500 L 429 97 429.500 97 L 430 97 430 96.500 L 430 96 429.500 96 L 429 96 429 96.500 M 431 97.500 L 431 98 431.500 98 L 432 98 432 97.500 L 432 97 431.500 97 L 431 97 431 97.500 M 453 97.500 L 453 98 453.500 98 L 454 98 454 97.500 L 454 97 453.500 97 L 453 97 453 97.500 M 464 99.500 L 464 100 464.500 100 L 465 100 465 99.500 L 465 99 464.500 99 L 464 99 464 99.500 M 417 100.500 L 417 101 417.500 101 L 418 101 418 100.500 L 418 100 417.500 100 L 417 100 417 100.500 M 420 101.500 L 420 102 420.500 102 L 421 102 421 101.500 L 421 101 420.500 101 L 420 101 420 101.500 M 423 102.500 L 423 103 423.500 103 L 424 103 424 102.500 L 424 102 423.500 102 L 423 102 423 102.500 M 425 103.500 L 425 104 425.500 104 L 426 104 426 103.500 L 426 103 425.500 103 L 425 103 425 103.500 M 438 104.500 L 438 105 438.500 105 L 439 105 439 104.500 L 439 104 438.500 104 L 438 104 438 104.500 M 457 105 L 457 106.333 457.667 105.667 L 458.333 105 457.667 104.333 L 457 103.667 457 105 M 466 104.500 L 466 105 466.500 105 L 467 105 467 104.500 L 467 104 466.500 104 L 466 104 466 104.500 M 411 106.500 L 411 107 411.500 107 L 412 107 412 106.500 L 412 106 411.500 106 L 411 106 411 106.500 M 441 109.500 L 441 110 441.500 110 L 442 110 442 109.500 L 442 109 441.500 109 L 441 109 441 109.500 M 421 110.500 L 421 111 421.500 111 L 422 111 422 110.500 L 422 110 421.500 110 L 421 110 421 110.500 M 423 111.500 L 423 112 423.500 112 L 424 112 424 111.500 L 424 111 423.500 111 L 423 111 423 111.500 M 443 114.500 L 443 115 443.500 115 L 444 115 444 114.500 L 444 114 443.500 114 L 443 114 443 114.500 M 460 114.500 L 460 115 460.500 115 L 461 115 461 114.500 L 461 114 460.500 114 L 460 114 460 114.500 M 427 117.500 L 427 118 427.500 118 L 428 118 428 117.500 L 428 117 427.500 117 L 427 117 427 117.500 M 415 118.500 L 415 119 415.500 119 L 416 119 416 118.500 L 416 118 415.500 118 L 415 118 415 118.500 M 452.079 120.583 L 452.158 122.500 452.683 121.188 L 453.208 119.875 452.604 119.271 L 452 118.667 452.079 120.583 M 436.195 123.500 L 436.232 126.500 436.693 124.731 L 437.154 122.962 436.656 121.731 L 436.158 120.500 436.195 123.500 M 428 123 L 428 124.333 428.667 123.667 L 429.333 123 428.667 122.333 L 428 121.667 428 123 M 461 123.500 L 461 124 461.500 124 L 462 124 462 123.500 L 462 123 461.500 123 L 461 123 461 123.500 M 417 124.500 L 417 125 417.500 125 L 418 125 418 124.500 L 418 124 417.500 124 L 417 124 417 124.500 M 429 126.500 L 429 127 429.500 127 L 430 127 430 126.500 L 430 126 429.500 126 L 429 126 429 126.500 M 452 126.500 L 452 127 452.500 127 L 453 127 453 126.500 L 453 126 452.500 126 L 452 126 452 126.500 M 461 127 L 461 128.333 461.667 127.667 L 462.333 127 461.667 126.333 L 461 125.667 461 127 M 411 127.500 L 411 128 411.500 128 L 412 128 412 127.500 L 412 127 411.500 127 L 411 127 411 127.500 M 415 127.500 L 415 128 415.500 128 L 416 128 416 127.500 L 416 127 415.500 127 L 415 127 415 127.500 M 432.269 128.693 L 434.038 129.154 435.269 128.656 L 436.500 128.158 433.500 128.195 L 430.500 128.232 432.269 128.693 M 462 129.500 L 462 130 462.500 130 L 463 130 463 129.500 L 463 129 462.500 129 L 462 129 462 129.500 M 270.244 197.739 L 268.988 198.171 269.686 199.335 L 270.384 200.500 268.874 199.278 L 267.364 198.057 265.182 199.585 L 263 201.113 263 202.196 L 263 203.280 261.250 204.648 L 259.500 206.017 264.500 203.498 L 269.500 200.979 271.885 200.521 L 274.271 200.063 274.885 199.372 L 275.500 198.681 273.813 199.285 L 272.125 199.889 271.813 198.598 L 271.500 197.307 270.244 197.739 M 318.637 197.696 L 318.441 197.892 303.471 198.085 L 288.500 198.278 286.511 198.986 L 284.521 199.694 297.511 199.895 L 310.500 200.097 316.985 200.298 L 323.470 200.500 323.760 199 L 324.050 197.500 321.442 197.500 L 318.833 197.500 318.637 197.696 M 325 198.500 L 325 199.813 327 199.290 L 329 198.767 329 198.500 L 329 198.233 327 197.710 L 325 197.187 325 198.500 M 277 199.031 L 277 200 278.500 200 L 280 200 280 199.607 L 280 199.214 278.500 198.638 L 277 198.063 277 199.031 M 281.813 199.683 L 283.125 200.208 283.729 199.604 L 284.333 199 282.417 199.079 L 280.500 199.158 281.813 199.683 M 328 201.059 L 328 202.118 329 201.500 L 330 200.882 330 200.441 L 330 200 329 200 L 328 200 328 201.059 M 261 202.500 L 261 203 261.500 203 L 262 203 262 202.500 L 262 202 261.500 202 L 261 202 261 202.500 M 258.333 203.667 L 259 204.333 259.667 203.667 L 260.333 203 259 203 L 257.667 203 258.333 203.667 M 328 204 L 328 205.333 328.667 204.667 L 329.333 204 328.667 203.333 L 328 202.667 328 204 M 324.604 207.091 L 323 210.307 323 210.654 L 323 211 323.879 211 L 324.757 211 326.013 207.968 L 327.269 204.936 326.739 204.406 L 326.209 203.875 324.604 207.091 M 257.334 209.427 L 257.881 210.854 256.393 212.089 L 254.905 213.323 255.817 213.912 L 256.728 214.500 256.040 219.774 L 255.352 225.048 256.035 224.274 L 256.718 223.500 257.859 217.583 L 259 211.666 259 209.833 L 259 208 257.893 208 L 256.786 208 257.334 209.427 M 317.526 215.261 L 313.552 221.500 309.769 227.835 L 305.987 234.170 306.582 235.133 L 307.178 236.097 308.525 234.979 L 309.871 233.862 310.586 230.681 L 311.300 227.500 311.757 228.821 L 312.214 230.142 313.760 227.321 L 315.306 224.500 316.962 221.413 L 318.618 218.326 320.809 215.975 L 323 213.623 323 212.752 L 323 211.882 321.893 212.566 L 320.786 213.250 321.460 211.125 L 322.135 209 321.817 209.011 L 321.500 209.022 317.526 215.261 M 254 215.500 L 254 216 254.500 216 L 255 216 255 215.500 L 255 215 254.500 215 L 254 215 254 215.500 M 254.079 218.583 L 254.158 220.500 254.683 219.188 L 255.208 217.875 254.604 217.271 L 254 216.667 254.079 218.583 M 253 221.500 L 253 222 253.500 222 L 254 222 254 221.500 L 254 221 253.500 221 L 253 221 253 221.500 M 313 224.500 L 313 225 313.500 225 L 314 225 314 224.500 L 314 224 313.500 224 L 313 224 313 224.500 M 253.333 228.667 L 254 229.333 254.667 228.667 L 255.333 228 254 228 L 252.667 228 253.333 228.667 M 251.079 231.583 L 251.158 233.500 251.683 232.188 L 252.208 230.875 251.604 230.271 L 251 229.667 251.079 231.583 M 253 233 L 253 234.333 253.667 233.667 L 254.333 233 253.667 232.333 L 253 231.667 253 233 M 250 234.500 L 250 235 250.500 235 L 251 235 251 234.500 L 251 234 250.500 234 L 250 234 250 234.500 M 250 236.500 L 250 237 250.500 237 L 251 237 251 236.500 L 251 236 250.500 236 L 250 236 250 236.500 M 253 236.500 L 253 237 253.500 237 L 254 237 254 236.500 L 254 236 253.500 236 L 253 236 253 236.500 M 302.638 238.500 L 302.063 240 303.340 240 L 304.618 240 306.559 238.532 L 308.500 237.064 305.857 237.032 L 303.214 237 302.638 238.500 M 252.158 240 L 252.158 242.500 252.662 241.250 L 253.167 240 252.662 238.750 L 252.158 237.500 252.158 240 M 300 243 L 300 244 301.059 244 L 302.118 244 301.500 243 L 300.882 242 300.441 242 L 300 242 300 243 M 310.500 243.049 L 307.500 243.763 318 244.066 L 328.500 244.369 330.712 244.480 L 332.925 244.591 333.629 245.296 L 334.333 246 333.167 246 L 332 246 332.118 246.750 L 332.237 247.500 332.118 249.513 L 332 251.526 329.775 252.513 L 327.549 253.500 325.291 256.873 L 323.034 260.246 323.591 261.148 L 324.149 262.050 323.183 261.775 L 322.218 261.500 320.159 263.846 L 318.100 266.191 319.269 267.443 L 320.438 268.695 323.117 264.997 L 325.796 261.299 326.207 259.400 L 326.619 257.500 327.809 257.750 L 329 258 329 257.052 L 329 256.103 331.524 253.379 L 334.048 250.656 334.671 248.173 L 335.295 245.690 334.288 244.095 L 333.281 242.500 323.390 242.417 L 313.500 242.334 310.500 243.049 M 303 243.500 L 303 244 303.500 244 L 304 244 304 243.500 L 304 243 303.500 243 L 303 243 303 243.500 M 250 244.500 L 250 245 250.500 245 L 251 245 251 244.500 L 251 244 250.500 244 L 250 244 250 244.500 M 249.333 248.667 L 250 249.333 250.667 248.667 L 251.333 248 250 248 L 248.667 248 249.333 248.667 M 249 253 L 249 254.333 249.667 253.667 L 250.333 253 249.667 252.333 L 249 251.667 249 253 M 246.079 254.583 L 246.158 256.500 246.683 255.188 L 247.208 253.875 246.604 253.271 L 246 252.667 246.079 254.583 M 248.079 257.583 L 248.158 259.500 248.683 258.188 L 249.208 256.875 248.604 256.271 L 248 255.667 248.079 257.583 M 243.727 269.064 L 244.227 270.978 245.114 270.430 L 246 269.882 246 269.048 L 246 268.214 244.613 267.682 L 243.226 267.150 243.727 269.064 M 314.683 271.250 L 312.265 274.500 310.629 277.080 L 308.993 279.660 309.746 280.413 L 310.500 281.167 309 280.833 L 307.500 280.500 307.639 282.250 L 307.778 284 306.440 284 L 305.102 284 302.301 287.730 L 299.500 291.460 298.306 292.980 L 297.111 294.500 292.393 301 L 287.675 307.500 283.281 313.238 L 278.887 318.975 279.805 320.616 L 280.723 322.257 281.421 321.128 L 282.118 320 281.459 320 L 280.799 320 285.941 314.374 L 291.082 308.749 290.643 308.309 L 290.203 307.870 292.141 305.685 L 294.079 303.500 297.289 299.915 L 300.500 296.330 301.998 293.415 L 303.497 290.500 304.748 289.700 L 306 288.901 306 287.500 L 306 286.099 307.256 285.300 L 308.512 284.500 311.503 280.500 L 314.493 276.500 314.497 276 L 314.500 275.500 316.750 273.250 L 319 271 319 269.500 L 319 268 318.051 268 L 317.102 268 314.683 271.250 M 245 272.500 L 245 273 245.500 273 L 246 273 246 272.500 L 246 272 245.500 272 L 245 272 245 272.500 M 315 272.500 L 315 273 315.500 273 L 316 273 316 272.500 L 316 272 315.500 272 L 315 272 315 272.500 M 244 276.500 L 244 277 244.500 277 L 245 277 245 276.500 L 245 276 244.500 276 L 244 276 244 276.500 M 265 285.500 L 265 286 265.500 286 L 266 286 266 285.500 L 266 285 265.500 285 L 265 285 265 285.500 M 264.079 288.583 L 264.158 290.500 264.683 289.188 L 265.208 287.875 264.604 287.271 L 264 286.667 264.079 288.583 M 261.333 292.667 L 262 293.333 262.667 292.667 L 263.333 292 262 292 L 260.667 292 261.333 292.667 M 260 297 L 260 298 261 298 L 262 298 262 297 L 262 296 261 296 L 260 296 260 297 M 258 299 L 258 300.333 258.667 299.667 L 259.333 299 258.667 298.333 L 258 297.667 258 299 M 295 299.500 L 295 300 295.500 300 L 296 300 296 299.500 L 296 299 295.500 299 L 295 299 295 299.500 M 255 307.500 L 255 308 255.500 308 L 256 308 256 307.500 L 256 307 255.500 307 L 255 307 255 307.500 M 257 308.500 L 257 309 257.500 309 L 258 309 258 308.500 L 258 308 257.500 308 L 257 308 257 308.500 M 254 311 L 254 312.333 254.667 311.667 L 255.333 311 254.667 310.333 L 254 309.667 254 311 M 256 314 L 256 315.333 256.667 314.667 L 257.333 314 256.667 313.333 L 256 312.667 256 314 M 277.500 321 L 276.882 322 277.941 322 L 279 322 279 321 L 279 320 278.559 320 L 278.118 320 277.500 321 M 253 324.500 L 253 325 253.500 325 L 254 325 254 324.500 L 254 324 253.500 324 L 253 324 253 324.500 M 276.195 326.500 L 276.232 329.500 276.693 327.731 L 277.154 325.962 276.656 324.731 L 276.158 323.500 276.195 326.500 M 278 324.500 L 278 325 278.500 325 L 279 325 279 324.500 L 279 324 278.500 324 L 278 324 278 324.500 M 252 326.500 L 252 327 252.500 327 L 253 327 253 326.500 L 253 326 252.500 326 L 252 326 252 326.500 M 272.079 332.583 L 272.158 334.500 272.683 333.188 L 273.208 331.875 272.604 331.271 L 272 330.667 272.079 332.583 M 247 334 L 245.930 336 246.881 336 L 247.833 336 248.338 334.750 L 248.842 333.500 248.921 334.781 L 249 336.063 247.500 336.638 L 246 337.214 246.015 339.857 L 246.031 342.500 246.877 341.165 L 247.723 339.831 248.268 341.915 L 248.813 344 252.156 343.930 L 255.500 343.859 257.500 343.005 L 259.500 342.151 255.311 342.502 L 251.123 342.853 249.944 341.432 L 248.765 340.011 249.254 337.756 L 249.743 335.500 250.478 333.750 L 251.214 332 249.642 332 L 248.070 332 247 334 M 264 341.059 L 264 342.118 265 341.500 L 266 340.882 266 340.441 L 266 340 265 340 L 264 340 264 341.059 M 254 345.500 L 254 346 254.500 346 L 255 346 255 345.500 L 255 345 254.500 345 L 254 345 254 345.500" stroke="none" fill="#ffbc11" fill-rule="evenodd"/><path d="M 415 66.500 L 415 67 415.500 67 L 416 67 416 66.500 L 416 66 415.500 66 L 415 66 415 66.500 M 419.333 66.667 L 420 67.333 420.667 66.667 L 421.333 66 420 66 L 418.667 66 419.333 66.667 M 412 67.500 L 412 68 412.500 68 L 413 68 413 67.500 L 413 67 412.500 67 L 412 67 412 67.500 M 423.813 67.683 L 425.125 68.208 425.729 67.604 L 426.333 67 424.417 67.079 L 422.500 67.158 423.813 67.683 M 428.333 68.667 L 429 69.333 429.667 68.667 L 430.333 68 429 68 L 427.667 68 428.333 68.667 M 411 69.500 L 411 70 411.500 70 L 412 70 412 69.500 L 412 69 411.500 69 L 411 69 411 69.500 M 431.333 69.667 L 432 70.333 432.667 69.667 L 433.333 69 432 69 L 430.667 69 431.333 69.667 M 411 71.500 L 411 72 411.500 72 L 412 72 412 71.500 L 412 71 411.500 71 L 411 71 411 71.500 M 436 71.500 L 436 72 436.500 72 L 437 72 437 71.500 L 437 71 436.500 71 L 436 71 436 71.500 M 438 72.500 L 438 73 438.500 73 L 439 73 439 72.500 L 439 72 438.500 72 L 438 72 438 72.500 M 412.500 74 L 413.118 75 413.618 75 L 414.118 75 413.500 74 L 412.882 73 412.382 73 L 411.882 73 412.500 74 M 440 73.500 L 440 74 440.500 74 L 441 74 441 73.500 L 441 73 440.500 73 L 440 73 440 73.500 M 442 74.500 L 442 75 442.500 75 L 443 75 443 74.500 L 443 74 442.500 74 L 442 74 442 74.500 M 416.269 75.693 L 418.038 76.154 419.269 75.656 L 420.500 75.158 417.500 75.195 L 414.500 75.232 416.269 75.693 M 424 76.500 L 424 77 424.500 77 L 425 77 425 76.500 L 425 76 424.500 76 L 424 76 424 76.500 M 445.500 77 L 446.118 78 446.618 78 L 447.118 78 446.500 77 L 445.882 76 445.382 76 L 444.882 76 445.500 77 M 426.333 77.667 L 427 78.333 427.667 77.667 L 428.333 77 427 77 L 425.667 77 426.333 77.667 M 429.813 78.683 L 431.125 79.208 431.729 78.604 L 432.333 78 430.417 78.079 L 428.500 78.158 429.813 78.683 M 452 82.500 L 455.392 86 455.892 86 L 456.392 86 453 82.500 L 449.608 79 449.108 79 L 448.608 79 452 82.500 M 434 80.500 L 434 81 434.500 81 L 435 81 435 80.500 L 435 80 434.500 80 L 434 80 434 80.500 M 436 81.500 L 436 82 436.500 82 L 437 82 437 81.500 L 437 81 436.500 81 L 436 81 436 81.500 M 438.500 83 L 439.118 84 439.618 84 L 440.118 84 439.500 83 L 438.882 82 438.382 82 L 437.882 82 438.500 83 M 410.872 84.750 L 409.500 86.500 411 85.338 L 412.500 84.177 415.500 83.738 L 418.500 83.300 415.372 83.150 L 412.245 83 410.872 84.750 M 420.333 84.667 L 421 85.333 421.667 84.667 L 422.333 84 421 84 L 419.667 84 420.333 84.667 M 424.333 85.667 L 425 86.333 425.667 85.667 L 426.333 85 425 85 L 423.667 85 424.333 85.667 M 442.500 86 L 443.118 87 443.618 87 L 444.118 87 443.500 86 L 442.882 85 442.382 85 L 441.882 85 442.500 86 M 427.333 86.667 L 428 87.333 428.667 86.667 L 429.333 86 428 86 L 426.667 86 427.333 86.667 M 430 87.500 L 430 88 430.500 88 L 431 88 431 87.500 L 431 87 430.500 87 L 430 87 430 87.500 M 457.500 89 L 459.310 91 459.810 91 L 460.310 91 458.500 89 L 456.690 87 456.190 87 L 455.690 87 457.500 89 M 410 88.500 L 410 89 410.500 89 L 411 89 411 88.500 L 411 88 410.500 88 L 410 88 410 88.500 M 432.500 89 L 433.118 90 433.618 90 L 434.118 90 433.500 89 L 432.882 88 432.382 88 L 431.882 88 432.500 89 M 445 88.500 L 445 89 445.500 89 L 446 89 446 88.500 L 446 88 445.500 88 L 445 88 445 88.500 M 411 90.500 L 411 91 411.500 91 L 412 91 412 90.500 L 412 90 411.500 90 L 411 90 411 90.500 M 435 90.500 L 435 91 435.500 91 L 436 91 436 90.500 L 436 90 435.500 90 L 435 90 435 90.500 M 413 91.500 L 413 92 413.500 92 L 414 92 414 91.500 L 414 91 413.500 91 L 413 91 413 91.500 M 440.500 95 L 444.406 99 444.906 99 L 445.406 99 441.500 95 L 437.594 91 437.094 91 L 436.594 91 440.500 95 M 417.333 92.667 L 418 93.333 418.667 92.667 L 419.333 92 418 92 L 416.667 92 417.333 92.667 M 420.238 92.550 L 420.977 93.310 425.238 95.213 L 429.500 97.116 428.500 96.110 L 427.500 95.104 423.500 93.447 L 419.500 91.790 420.238 92.550 M 449 92.378 L 449 92.755 450.750 94.128 L 452.500 95.500 451.128 93.750 L 449.755 92 449.378 92 L 449 92 449 92.378 M 460.500 93 L 461.118 94 461.618 94 L 462.118 94 461.500 93 L 460.882 92 460.382 92 L 459.882 92 460.500 93 M 452 96.500 L 452 97 452.500 97 L 453 97 453 96.500 L 453 96 452.500 96 L 452 96 452 96.500 M 463 96.500 L 463 97 463.500 97 L 464 97 464 96.500 L 464 96 463.500 96 L 463 96 463 96.500 M 430.500 98 L 431.118 99 431.618 99 L 432.118 99 431.500 98 L 430.882 97 430.382 97 L 429.882 97 430.500 98 M 464 98.500 L 464 99 464.500 99 L 465 99 465 98.500 L 465 98 464.500 98 L 464 98 464 98.500 M 412.750 99.662 L 414 100.167 415.250 99.662 L 416.500 99.158 414 99.158 L 411.500 99.158 412.750 99.662 M 454 99.500 L 454 100 454.500 100 L 455 100 455 99.500 L 455 99 454.500 99 L 454 99 454 99.500 M 409.667 100.667 L 409 101.333 409 103.544 L 409 105.755 410.750 107.128 L 412.500 108.500 411.132 106.756 L 409.765 105.011 410.244 102.506 L 410.723 100 410.528 100 L 410.333 100 409.667 100.667 M 418.333 100.667 L 419 101.333 419.667 100.667 L 420.333 100 419 100 L 417.667 100 418.333 100.667 M 434.500 101 L 435.118 102 435.618 102 L 436.118 102 435.500 101 L 434.882 100 434.382 100 L 433.882 100 434.500 101 M 465 101 L 465 102.333 465.667 101.667 L 466.333 101 465.667 100.333 L 465 99.667 465 101 M 421.333 101.667 L 422 102.333 422.667 101.667 L 423.333 101 422 101 L 420.667 101 421.333 101.667 M 446 101.500 L 446 102 446.500 102 L 447 102 447 101.500 L 447 101 446.500 101 L 446 101 446 101.500 M 455 101.500 L 455 102 455.500 102 L 456 102 456 101.500 L 456 101 455.500 101 L 455 101 455 101.500 M 424 102.500 L 424 103 424.500 103 L 425 103 425 102.500 L 425 102 424.500 102 L 424 102 424 102.500 M 447 103.500 L 447 104 447.500 104 L 448 104 448 103.500 L 448 103 447.500 103 L 447 103 447 103.500 M 466 103.500 L 466 104 466.500 104 L 467 104 467 103.500 L 467 103 466.500 103 L 466 103 466 103.500 M 428.500 106 L 430.310 108 430.810 108 L 431.310 108 429.500 106 L 427.690 104 427.190 104 L 426.690 104 428.500 106 M 438.500 106 L 439.118 107 439.618 107 L 440.118 107 439.500 106 L 438.882 105 438.382 105 L 437.882 105 438.500 106 M 448 105.500 L 448 106 448.500 106 L 449 106 449 105.500 L 449 105 448.500 105 L 448 105 448 105.500 M 467.086 106 L 467.031 107.500 468 109 L 468.969 110.500 468.914 109.500 L 468.859 108.500 468 106.500 L 467.141 104.500 467.086 106 M 457 106.500 L 457 107 457.500 107 L 458 107 458 106.500 L 458 106 457.500 106 L 457 106 457 106.500 M 449 107.500 L 449 108 449.500 108 L 450 108 450 107.500 L 450 107 449.500 107 L 449 107 449 107.500 M 416.333 108.667 L 417 109.333 417.667 108.667 L 418.333 108 417 108 L 415.667 108 416.333 108.667 M 440 108.500 L 440 109 440.500 109 L 441 109 441 108.500 L 441 108 440.500 108 L 440 108 440 108.500 M 458.086 108.500 L 458.141 109.500 459 111.500 L 459.859 113.500 459.914 112 L 459.969 110.500 459 109 L 458.031 107.500 458.086 108.500 M 419 109.500 L 419 110 419.500 110 L 420 110 420 109.500 L 420 109 419.500 109 L 419 109 419 109.500 M 450 109.500 L 450 110 450.500 110 L 451 110 451 109.500 L 451 109 450.500 109 L 450 109 450 109.500 M 432.500 111 L 433.118 112 433.618 112 L 434.118 112 433.500 111 L 432.882 110 432.382 110 L 431.882 110 432.500 111 M 441 110.500 L 441 111 441.500 111 L 442 111 442 110.500 L 442 110 441.500 110 L 441 110 441 110.500 M 423.500 113 L 425.310 115 425.810 115 L 426.310 115 424.500 113 L 422.690 111 422.190 111 L 421.690 111 423.500 113 M 442 113 L 442 114.333 442.667 113.667 L 443.333 113 442.667 112.333 L 442 111.667 442 113 M 451 113 L 451 114.333 451.667 113.667 L 452.333 113 451.667 112.333 L 451 111.667 451 113 M 469.158 114 L 469.158 116.500 469.662 115.250 L 470.167 114 469.662 112.750 L 469.158 111.500 469.158 114 M 434 113.500 L 434 114 434.500 114 L 435 114 435 113.500 L 435 113 434.500 113 L 434 113 434 113.500 M 435 116 L 435 117.333 435.667 116.667 L 436.333 116 435.667 115.333 L 435 114.667 435 116 M 443 116 L 443 117.333 443.667 116.667 L 444.333 116 443.667 115.333 L 443 114.667 443 116 M 460.158 117 L 460.158 119.500 460.662 118.250 L 461.167 117 460.662 115.750 L 460.158 114.500 460.158 117 M 426 116.500 L 426 117 426.500 117 L 427 117 427 116.500 L 427 116 426.500 116 L 426 116 426 116.500 M 452.079 117.583 L 452.158 119.500 452.683 118.188 L 453.208 116.875 452.604 116.271 L 452 115.667 452.079 117.583 M 410.441 118.555 L 408.500 120.110 410.500 119.190 L 412.500 118.270 414 117.714 L 415.500 117.158 413.941 117.079 L 412.382 117 410.441 118.555 M 427 118.500 L 427 119 427.500 119 L 428 119 428 118.500 L 428 118 427.500 118 L 427 118 427 118.500 M 436 120 L 436 121.333 436.667 120.667 L 437.333 120 436.667 119.333 L 436 118.667 436 120 M 218 120.500 L 218 121 218.500 121 L 219 121 219 120.500 L 219 120 218.500 120 L 218 120 218 120.500 M 355 120.500 L 355 121 355.500 121 L 356 121 356 120.500 L 356 120 355.500 120 L 355 120 355 120.500 M 444.252 123.500 L 444.272 127.500 444.707 125.238 L 445.142 122.977 444.687 121.238 L 444.232 119.500 444.252 123.500 M 359 121.500 L 359 122 359.500 122 L 360 122 360 121.500 L 360 121 359.500 121 L 359 121 359 121.500 M 418 121.500 L 418 122 418.500 122 L 419 122 419 121.500 L 419 121 418.500 121 L 418 121 418 121.500 M 211 122.500 L 211 123 211.500 123 L 212 123 212 122.500 L 212 122 211.500 122 L 211 122 211 122.500 M 363 122.500 L 363 123 363.500 123 L 364 123 364 122.500 L 364 122 363.500 122 L 363 122 363 122.500 M 365 123.500 L 365 124 365.500 124 L 366 124 366 123.500 L 366 123 365.500 123 L 365 123 365 123.500 M 417.564 124.707 L 416.882 126.500 418.124 125.267 L 419.367 124.033 418.807 123.474 L 418.247 122.914 417.564 124.707 M 367 124.500 L 367 125 367.500 125 L 368 125 368 124.500 L 368 124 367.500 124 L 367 124 367 124.500 M 408 124.500 L 408 125 408.500 125 L 409 125 409 124.500 L 409 124 408.500 124 L 408 124 408 124.500 M 428 125 L 428 126.333 428.667 125.667 L 429.333 125 428.667 124.333 L 428 123.667 428 125 M 470 124.500 L 470 125 470.500 125 L 471 125 471 124.500 L 471 124 470.500 124 L 470 124 470 124.500 M 369 125.500 L 369 126 369.500 126 L 370 126 370 125.500 L 370 125 369.500 125 L 369 125 369 125.500 M 409.500 127 L 410.118 128 410.618 128 L 411.118 128 410.500 127 L 409.882 126 409.382 126 L 408.882 126 409.500 127 M 436 126.500 L 436 127 436.500 127 L 437 127 437 126.500 L 437 126 436.500 126 L 436 126 436 126.500 M 372 127.500 L 372 128 372.500 128 L 373 128 373 127.500 L 373 127 372.500 127 L 372 127 372 127.500 M 429.500 128 L 430.118 129 430.618 129 L 431.118 129 430.500 128 L 429.882 127 429.382 127 L 428.882 127 429.500 128 M 451.564 128.707 L 450.882 130.500 452.124 129.267 L 453.367 128.033 452.807 127.474 L 452.247 126.914 451.564 128.707 M 467.872 128.750 L 466.500 130.500 468.250 129.128 L 470 127.755 470 127.378 L 470 127 469.622 127 L 469.245 127 467.872 128.750 M 413.333 128.667 L 414 129.333 414.667 128.667 L 415.333 128 414 128 L 412.667 128 413.333 128.667 M 445 128.500 L 445 129 445.500 129 L 446 129 446 128.500 L 446 128 445.500 128 L 445 128 445 128.500 M 461 128.500 L 461 129 461.500 129 L 462 129 462 128.500 L 462 128 461.500 128 L 461 128 461 128.500 M 375.500 130 L 376.118 131 376.618 131 L 377.118 131 376.500 130 L 375.882 129 375.382 129 L 374.882 129 375.500 130 M 447 129.500 L 447 130 447.500 130 L 448 130 448 129.500 L 448 129 447.500 129 L 447 129 447 129.500 M 193.946 133.750 L 190.500 137.500 194.250 134.054 L 198 130.608 198 130.304 L 198 130 197.696 130 L 197.392 130 193.946 133.750 M 463 130.500 L 463 131 463.500 131 L 464 131 464 130.500 L 464 130 463.500 130 L 463 130 463 130.500 M 465 130.500 L 465 131 465.500 131 L 466 131 466 130.500 L 466 130 465.500 130 L 465 130 465 130.500 M 383 137.500 L 383 138 383.500 138 L 384 138 384 137.500 L 384 137 383.500 137 L 383 137 383 137.500 M 189 139.500 L 189 140 189.500 140 L 190 140 190 139.500 L 190 139 189.500 139 L 189 139 189 139.500 M 385 140.500 L 385 141 385.500 141 L 386 141 386 140.500 L 386 140 385.500 140 L 385 140 385 140.500 M 187 142.500 L 187 143 187.500 143 L 188 143 188 142.500 L 188 142 187.500 142 L 187 142 187 142.500 M 186 144.500 L 186 145 186.500 145 L 187 145 187 144.500 L 187 144 186.500 144 L 186 144 186 144.500 M 185 146.500 L 185 147 185.500 147 L 186 147 186 146.500 L 186 146 185.500 146 L 185 146 185 146.500 M 184 148.500 L 184 149 184.500 149 L 185 149 185 148.500 L 185 148 184.500 148 L 184 148 184 148.500 M 390 150.500 L 390 151 390.500 151 L 391 151 391 150.500 L 391 150 390.500 150 L 390 150 390 150.500 M 183 151.500 L 183 152 183.500 152 L 184 152 184 151.500 L 184 151 183.500 151 L 183 151 183 151.500 M 391 154 L 391 155.333 391.667 154.667 L 392.333 154 391.667 153.333 L 391 152.667 391 154 M 182 154.500 L 182 155 182.500 155 L 183 155 183 154.500 L 183 154 182.500 154 L 182 154 182 154.500 M 392.485 288.500 L 392.485 415.500 392.750 351.672 L 393.015 287.845 392.750 224.672 L 392.485 161.500 392.485 288.500 M 366.245 272.239 L 366 378.978 324.750 379.250 L 283.500 379.523 324.781 379.761 L 366.063 380 366.539 378.750 L 367.015 377.500 366.753 271.500 L 366.491 165.500 366.245 272.239 M 264.232 198.467 L 259.964 200.723 258.062 202.444 L 256.160 204.165 254.992 209.035 L 253.823 213.905 254.418 214.867 L 255.012 215.829 254.134 216.165 L 253.256 216.500 248.606 238 L 243.956 259.500 241.286 271.886 L 238.617 284.271 240.919 286.136 L 243.222 288 251.052 288 L 258.882 288 259.457 288.931 L 260.032 289.861 257.453 297.545 L 254.874 305.229 255.425 306.666 L 255.977 308.104 255.153 307.595 L 254.330 307.086 250.165 320.439 L 246 333.792 246.030 334.646 L 246.061 335.500 247.080 333.750 L 248.099 332 249.657 332 L 251.214 332 250.607 333.582 L 250 335.164 249.985 335.832 L 249.969 336.500 249 335 L 248.031 333.500 248.015 334.750 L 248 336 246.617 336 L 245.233 336 244.759 338.481 L 244.285 340.961 245.679 342.952 L 247.073 344.943 251.170 346.046 L 255.266 347.149 261.883 343.824 L 268.500 340.500 272.557 335.115 L 276.614 329.731 276.332 326.615 L 276.049 323.500 276.817 325.990 L 277.585 328.480 278.352 327.240 L 279.118 326 278.405 324.845 L 277.691 323.691 278.773 324.360 L 279.856 325.029 290.349 311.014 L 300.843 297 300.034 297 L 299.225 297 296.863 300.152 L 294.500 303.304 292.295 305.652 L 290.091 308 290.614 308 L 291.136 308 289.045 310.937 L 286.953 313.875 284.035 316.629 L 281.118 319.382 281.575 320.122 L 282.033 320.862 281.121 321.425 L 280.210 321.989 279.604 320.411 L 278.999 318.833 283.337 313.166 L 287.675 307.500 292.393 301 L 297.111 294.500 298.306 292.980 L 299.500 291.460 302.301 287.730 L 305.102 284 306.440 284 L 307.778 284 307.639 282.250 L 307.500 280.500 308.824 280.775 L 310.149 281.050 309.599 280.160 L 309.049 279.271 312.775 273.961 L 316.500 268.651 317.750 268.242 L 319 267.833 319 269.417 L 319 271 316.750 273.250 L 314.500 275.500 314.497 276 L 314.493 276.500 311.503 280.500 L 308.512 284.500 307.256 285.300 L 306 286.099 306 287.500 L 306 288.901 304.750 289.700 L 303.500 290.500 302.181 292.847 L 300.861 295.195 301.350 295.683 L 301.838 296.171 302.850 294.336 L 303.862 292.500 319.952 271 L 336.041 249.500 336.671 247.081 L 337.302 244.663 335.040 242.831 L 332.778 241 320.389 241 L 308 241 308 239.465 L 308 237.930 306.066 238.965 L 304.131 240 303.097 240 L 302.063 240 302.638 238.500 L 303.214 237 305.939 237 L 308.663 237 312.029 231.750 L 315.396 226.500 322.609 215.500 L 329.823 204.500 330.463 202.301 L 331.102 200.102 329.051 198.051 L 327 196 297.750 196.106 L 268.500 196.211 264.232 198.467 M 270.244 197.735 L 268.988 198.171 269.686 199.335 L 270.384 200.500 268.874 199.278 L 267.364 198.057 265.182 199.585 L 263 201.113 263 202.506 L 263 203.898 266.750 202.356 L 270.500 200.814 271.363 199.995 L 272.225 199.175 271.863 198.238 L 271.500 197.300 270.244 197.735 M 318.637 197.696 L 318.441 197.892 303.471 198.085 L 288.500 198.278 286.511 198.986 L 284.521 199.694 297.964 199.884 L 311.408 200.074 311.870 200.537 L 312.333 201 292.417 200.985 L 272.500 200.969 274 200 L 275.500 199.031 274.794 199.015 L 274.089 199 270.405 201.500 L 266.721 204 265.110 204.118 L 263.500 204.237 262.325 204.092 L 261.151 203.947 260.523 204.962 L 259.896 205.977 261.698 205.301 L 263.500 204.626 262.148 206.288 L 260.796 207.951 259.475 213.225 L 258.154 218.500 258.706 213.250 L 259.258 208 258.022 208 L 256.786 208 257.334 209.427 L 257.881 210.854 256.393 212.089 L 254.905 213.323 255.817 213.912 L 256.728 214.500 256.051 219.694 L 255.373 224.888 256.186 224.385 L 257 223.882 257 224.668 L 257 225.454 255.304 233.345 L 253.609 241.236 252.791 239.368 L 251.972 237.500 252.438 240.500 L 252.904 243.500 251.256 251.368 L 249.609 259.236 248.789 257.368 L 247.969 255.500 248.532 258.361 L 249.094 261.222 247.888 266.611 L 246.682 272 245.980 272 L 245.277 272 245.784 274.649 L 246.290 277.297 245.326 276.701 L 244.362 276.106 244.794 279.053 L 245.227 282 246.363 282.066 L 247.500 282.132 256.024 282.011 L 264.549 281.890 266.196 282.522 L 267.842 283.154 266.790 286.173 L 265.737 289.193 265.005 288.008 L 264.273 286.823 264.188 290.662 L 264.103 294.500 260.702 304.953 L 257.302 315.407 256.815 314.453 L 256.328 313.500 256.673 314.855 L 257.018 316.209 255.850 320.105 L 254.683 324 253.873 324 L 253.063 324 253.554 325.279 L 254.044 326.558 252.065 332.310 L 250.086 338.062 250.621 339.454 L 251.155 340.845 252.663 341.424 L 254.171 342.003 259.335 339.188 L 264.500 336.372 270.252 328.936 L 276.004 321.500 277.502 321.794 L 279 322.088 279 320.985 L 279 319.882 278 320.500 L 277 321.118 277 320.526 L 277 319.935 295.743 294.717 L 314.487 269.500 322.698 258.538 L 330.910 247.577 330.533 247.200 L 330.156 246.823 313.578 246.950 L 297 247.077 297 246.230 L 297 245.382 298.468 243.441 L 299.936 241.500 299.968 242.750 L 300 244 301.122 244 L 302.245 244 301.078 242.594 L 299.910 241.187 308.084 228.344 L 316.257 215.500 319.822 210.106 L 323.386 204.711 323.672 201.106 L 323.957 197.500 321.395 197.500 L 318.833 197.500 318.637 197.696 M 325 198.562 L 325 199.937 326.500 199.362 L 328 198.786 328 200.452 L 328 202.118 328.956 201.527 L 329.913 200.936 329.387 199.567 L 328.862 198.197 326.931 197.692 L 325 197.187 325 198.562 M 277 199.031 L 277 200 278.500 200 L 280 200 280 199.607 L 280 199.214 278.500 198.638 L 277 198.063 277 199.031 M 281.813 199.683 L 283.125 200.208 283.729 199.604 L 284.333 199 282.417 199.079 L 280.500 199.158 281.813 199.683 M 314.762 200.707 L 317.023 201.142 318.762 200.687 L 320.500 200.232 316.500 200.252 L 312.500 200.272 314.762 200.707 M 261 202.500 L 261 203 261.500 203 L 262 203 262 202.500 L 262 202 261.500 202 L 261 202 261 202.500 M 258.333 203.667 L 259 204.333 259.667 203.667 L 260.333 203 259 203 L 257.667 203 258.333 203.667 M 276.250 203.689 L 278 204.147 279.750 203.689 L 281.500 203.232 278 203.232 L 274.500 203.232 276.250 203.689 M 328 204 L 328 205.333 328.667 204.667 L 329.333 204 328.667 203.333 L 328 202.667 328 204 M 324.604 207.091 L 323 210.307 323 210.654 L 323 211 323.879 211 L 324.757 211 326.013 207.968 L 327.269 204.936 326.739 204.406 L 326.209 203.875 324.604 207.091 M 273 205.500 L 273 206 273.500 206 L 274 206 274 205.500 L 274 205 273.500 205 L 273 205 273 205.500 M 318 207.500 L 318 208 318.500 208 L 319 208 319 207.500 L 319 207 318.500 207 L 318 207 318 207.500 M 272 209.500 L 272 210 272.500 210 L 273 210 273 209.500 L 273 209 272.500 209 L 272 209 272 209.500 M 317.526 215.261 L 313.552 221.500 309.769 227.835 L 305.987 234.170 306.582 235.133 L 307.178 236.097 308.525 234.979 L 309.871 233.862 310.586 230.681 L 311.300 227.500 311.757 228.821 L 312.214 230.142 313.760 227.321 L 315.306 224.500 316.962 221.413 L 318.618 218.326 320.809 215.975 L 323 213.623 323 212.752 L 323 211.882 321.893 212.566 L 320.786 213.250 321.460 211.125 L 322.135 209 321.817 209.011 L 321.500 209.022 317.526 215.261 M 315 212.500 L 315 213 315.500 213 L 316 213 316 212.500 L 316 212 315.500 212 L 315 212 315 212.500 M 271 214.500 L 271 215 271.500 215 L 272 215 272 214.500 L 272 214 271.500 214 L 271 214 271 214.500 M 313 215.500 L 313 216 313.500 216 L 314 216 314 215.500 L 314 215 313.500 215 L 313 215 313 215.500 M 254.079 218.583 L 254.158 220.500 254.683 219.188 L 255.208 217.875 254.604 217.271 L 254 216.667 254.079 218.583 M 270 218.500 L 270 219 270.500 219 L 271 219 271 218.500 L 271 218 270.500 218 L 270 218 270 218.500 M 311 218.500 L 311 219 311.500 219 L 312 219 312 218.500 L 312 218 311.500 218 L 311 218 311 218.500 M 257.158 221 L 257.158 223.500 257.662 222.250 L 258.167 221 257.662 219.750 L 257.158 218.500 257.158 221 M 253 221.500 L 253 222 253.500 222 L 254 222 254 221.500 L 254 221 253.500 221 L 253 221 253 221.500 M 309 221.500 L 309 222 309.500 222 L 310 222 310 221.500 L 310 221 309.500 221 L 309 221 309 221.500 M 269 223.500 L 269 224 269.500 224 L 270 224 270 223.500 L 270 223 269.500 223 L 269 223 269 223.500 M 313 224.500 L 313 225 313.500 225 L 314 225 314 224.500 L 314 224 313.500 224 L 313 224 313 224.500 M 306 226.500 L 306 227 306.500 227 L 307 227 307 226.500 L 307 226 306.500 226 L 306 226 306 226.500 M 268 227.500 L 268 228 268.500 228 L 269 228 269 227.500 L 269 227 268.500 227 L 268 227 268 227.500 M 253.333 228.667 L 254 229.333 254.667 228.667 L 255.333 228 254 228 L 252.667 228 253.333 228.667 M 304 229.500 L 304 230 304.500 230 L 305 230 305 229.500 L 305 229 304.500 229 L 304 229 304 229.500 M 251.079 231.583 L 251.158 233.500 251.683 232.188 L 252.208 230.875 251.604 230.271 L 251 229.667 251.079 231.583 M 267 231.500 L 267 232 267.500 232 L 268 232 268 231.500 L 268 231 267.500 231 L 267 231 267 231.500 M 253 233 L 253 234.333 253.667 233.667 L 254.333 233 253.667 232.333 L 253 231.667 253 233 M 302 232.500 L 302 233 302.500 233 L 303 233 303 232.500 L 303 232 302.500 232 L 302 232 302 232.500 M 250 234.500 L 250 235 250.500 235 L 251 235 251 234.500 L 251 234 250.500 234 L 250 234 250 234.500 M 250 236.500 L 250 237 250.500 237 L 251 237 251 236.500 L 251 236 250.500 236 L 250 236 250 236.500 M 253 236.500 L 253 237 253.500 237 L 254 237 254 236.500 L 254 236 253.500 236 L 253 236 253 236.500 M 266 236.500 L 266 237 266.500 237 L 267 237 267 236.500 L 267 236 266.500 236 L 266 236 266 236.500 M 297 240.500 L 297 241 297.500 241 L 298 241 298 240.500 L 298 240 297.500 240 L 297 240 297 240.500 M 265 241.500 L 265 242 265.500 242 L 266 242 266 241.500 L 266 241 265.500 241 L 265 241 265 241.500 M 310.500 243.049 L 307.500 243.763 318 244.066 L 328.500 244.369 330.712 244.480 L 332.925 244.591 333.629 245.296 L 334.333 246 333.167 246 L 332 246 332.118 246.750 L 332.237 247.500 332.118 249.513 L 332 251.526 329.775 252.513 L 327.549 253.500 325.291 256.873 L 323.034 260.246 323.591 261.148 L 324.149 262.050 323.183 261.775 L 322.218 261.500 320.159 263.846 L 318.100 266.191 319.269 267.443 L 320.438 268.695 323.117 264.997 L 325.796 261.299 326.207 259.400 L 326.619 257.500 327.809 257.750 L 329 258 329 257.052 L 329 256.103 331.524 253.379 L 334.048 250.656 334.671 248.173 L 335.295 245.690 334.288 244.095 L 333.281 242.500 323.390 242.417 L 313.500 242.334 310.500 243.049 M 295 243.500 L 295 244 295.500 244 L 296 244 296 243.500 L 296 243 295.500 243 L 295 243 295 243.500 M 303 243.500 L 303 244 303.500 244 L 304 244 304 243.500 L 304 243 303.500 243 L 303 243 303 243.500 M 250 244.500 L 250 245 250.500 245 L 251 245 251 244.500 L 251 244 250.500 244 L 250 244 250 244.500 M 264 245.500 L 264 246 264.500 246 L 265 246 265 245.500 L 265 245 264.500 245 L 264 245 264 245.500 M 293 246.500 L 293 247 293.500 247 L 294 247 294 246.500 L 294 246 293.500 246 L 293 246 293 246.500 M 249.333 248.667 L 250 249.333 250.667 248.667 L 251.333 248 250 248 L 248.667 248 249.333 248.667 M 292 248.500 L 292 249 292.500 249 L 293 249 293 248.500 L 293 248 292.500 248 L 292 248 292 248.500 M 263 250.500 L 263 251 263.500 251 L 264 251 264 250.500 L 264 250 263.500 250 L 263 250 263 250.500 M 249 253 L 249 254.333 249.667 253.667 L 250.333 253 249.667 252.333 L 249 251.667 249 253 M 323.405 253.155 L 322.691 254.309 323.845 253.595 L 325 252.882 325 252.441 L 325 252 324.559 252 L 324.118 252 323.405 253.155 M 246.079 254.583 L 246.158 256.500 246.683 255.188 L 247.208 253.875 246.604 253.271 L 246 252.667 246.079 254.583 M 262 254.500 L 262 255 262.500 255 L 263 255 263 254.500 L 263 254 262.500 254 L 262 254 262 254.500 M 320 257.500 L 320 258 320.500 258 L 321 258 321 257.500 L 321 257 320.500 257 L 320 257 320 257.500 M 261 259 L 261 260.333 261.667 259.667 L 262.333 259 261.667 258.333 L 261 257.667 261 259 M 317 261.500 L 317 262 317.500 262 L 318 262 318 261.500 L 318 261 317.500 261 L 317 261 317 261.500 M 260 263.500 L 260 264 260.500 264 L 261 264 261 263.500 L 261 263 260.500 263 L 260 263 260 263.500 M 314 265.500 L 314 266 314.500 266 L 315 266 315 265.500 L 315 265 314.500 265 L 314 265 314 265.500 M 243.727 269.064 L 244.227 270.978 245.114 270.430 L 246 269.882 246 269.048 L 246 268.214 244.613 267.682 L 243.226 267.150 243.727 269.064 M 259 268.500 L 259 269 259.500 269 L 260 269 260 268.500 L 260 268 259.500 268 L 259 268 259 268.500 M 311 269.500 L 311 270 311.500 270 L 312 270 312 269.500 L 312 269 311.500 269 L 311 269 311 269.500 M 258.405 273.225 L 258.660 274.500 270.238 275 L 281.815 275.500 281.349 274.750 L 280.882 274 270.024 274 L 259.167 274 258.658 272.975 L 258.150 271.950 258.405 273.225 M 315 272.500 L 315 273 315.500 273 L 316 273 316 272.500 L 316 272 315.500 272 L 315 272 315 272.500 M 308 273.500 L 308 274 308.500 274 L 309 274 309 273.500 L 309 273 308.500 273 L 308 273 308 273.500 M 305 277.500 L 305 278 305.500 278 L 306 278 306 277.500 L 306 277 305.500 277 L 305 277 305 277.500 M 280 278.500 L 280 279 280.500 279 L 281 279 281 278.500 L 281 278 280.500 278 L 280 278 280 278.500 M 279 281.500 L 279 282 279.500 282 L 280 282 280 281.500 L 280 281 279.500 281 L 279 281 279 281.500 M 302 281.500 L 302 282 302.500 282 L 303 282 303 281.500 L 303 281 302.500 281 L 302 281 302 281.500 M 278 284.500 L 278 285 278.500 285 L 279 285 279 284.500 L 279 284 278.500 284 L 278 284 278 284.500 M 265 285.500 L 265 286 265.500 286 L 266 286 266 285.500 L 266 285 265.500 285 L 265 285 265 285.500 M 299 285.500 L 299 286 299.500 286 L 300 286 300 285.500 L 300 285 299.500 285 L 299 285 299 285.500 M 277 288.500 L 277 289 277.500 289 L 278 289 278 288.500 L 278 288 277.500 288 L 277 288 277 288.500 M 296 289.500 L 296 290 296.500 290 L 297 290 297 289.500 L 297 289 296.500 289 L 296 289 296 289.500 M 276 291.500 L 276 292 276.500 292 L 277 292 277 291.500 L 277 291 276.500 291 L 276 291 276 291.500 M 261.333 292.667 L 262 293.333 262.667 292.667 L 263.333 292 262 292 L 260.667 292 261.333 292.667 M 294 292.500 L 294 293 294.500 293 L 295 293 295 292.500 L 295 292 294.500 292 L 294 292 294 292.500 M 275 294.500 L 275 295 275.500 295 L 276 295 276 294.500 L 276 294 275.500 294 L 275 294 275 294.500 M 260 297 L 260 298 261 298 L 262 298 262 297 L 262 296 261 296 L 260 296 260 297 M 290.405 297.155 L 289.691 298.309 290.845 297.595 L 292 296.882 292 296.441 L 292 296 291.559 296 L 291.118 296 290.405 297.155 M 274 297.500 L 274 298 274.500 298 L 275 298 275 297.500 L 275 297 274.500 297 L 274 297 274 297.500 M 258 299 L 258 300.333 258.667 299.667 L 259.333 299 258.667 298.333 L 258 297.667 258 299 M 295 299.500 L 295 300 295.500 300 L 296 300 296 299.500 L 296 299 295.500 299 L 295 299 295 299.500 M 287.405 301.155 L 286.691 302.309 287.845 301.595 L 289 300.882 289 300.441 L 289 300 288.559 300 L 288.118 300 287.405 301.155 M 272 304.500 L 272 305 272.500 305 L 273 305 273 304.500 L 273 304 272.500 304 L 272 304 272 304.500 M 285 304.500 L 285 305 285.500 305 L 286 305 286 304.500 L 286 304 285.500 304 L 285 304 285 304.500 M 271 307.500 L 271 308 271.500 308 L 272 308 272 307.500 L 272 307 271.500 307 L 271 307 271 307.500 M 257 308.500 L 257 309 257.500 309 L 258 309 258 308.500 L 258 308 257.500 308 L 257 308 257 308.500 M 282 308.500 L 282 309 282.500 309 L 283 309 283 308.500 L 283 308 282.500 308 L 282 308 282 308.500 M 254 311 L 254 312.333 254.667 311.667 L 255.333 311 254.667 310.333 L 254 309.667 254 311 M 270 310.500 L 270 311 270.500 311 L 271 311 271 310.500 L 271 310 270.500 310 L 270 310 270 310.500 M 278.405 313.155 L 277.691 314.309 278.845 313.595 L 280 312.882 280 312.441 L 280 312 279.559 312 L 279.118 312 278.405 313.155 M 269 313.500 L 269 314 269.500 314 L 270 314 270 313.500 L 270 313 269.500 313 L 269 313 269 313.500 M 268 316.500 L 268 317 268.500 317 L 269 317 269 316.500 L 269 316 268.500 316 L 268 316 268 316.500 M 276 316.500 L 276 317 276.500 317 L 277 317 277 316.500 L 277 316 276.500 316 L 276 316 276 316.500 M 267 319.500 L 267 320 267.500 320 L 268 320 268 319.500 L 268 319 267.500 319 L 267 319 267 319.500 M 272.405 321.155 L 271.691 322.309 272.845 321.595 L 274 320.882 274 320.441 L 274 320 273.559 320 L 273.118 320 272.405 321.155 M 266 323.500 L 266 324 266.500 324 L 267 324 267 323.500 L 267 323 266.500 323 L 266 323 266 323.500 M 270 324.500 L 270 325 270.500 325 L 271 325 271 324.500 L 271 324 270.500 324 L 270 324 270 324.500 M 252 326.500 L 252 327 252.500 327 L 253 327 253 326.500 L 253 326 252.500 326 L 252 326 252 326.500 M 265 326.500 L 265 327 265.500 327 L 266 327 266 326.500 L 266 326 265.500 326 L 265 326 265 326.500 M 266.872 328.750 L 265.500 330.500 267.250 329.128 L 269 327.755 269 327.378 L 269 327 268.622 327 L 268.245 327 266.872 328.750 M 264 329.500 L 264 330 264.500 330 L 265 330 265 329.500 L 265 329 264.500 329 L 264 329 264 329.500 M 272.079 332.583 L 272.158 334.500 272.683 333.188 L 273.208 331.875 272.604 331.271 L 272 330.667 272.079 332.583 M 263 332.500 L 263 333 263.500 333 L 264 333 264 332.500 L 264 332 263.500 332 L 263 332 263 332.500 M 247.250 336.739 L 246 337.167 246.015 339.833 L 246.031 342.500 246.877 341.165 L 247.723 339.831 248.268 341.915 L 248.813 344 252.156 343.930 L 255.500 343.859 257.500 343.005 L 259.500 342.151 255.311 342.502 L 251.123 342.853 250.157 341.676 L 249.192 340.500 248.846 338.406 L 248.500 336.311 247.250 336.739 M 264 341.059 L 264 342.118 265 341.500 L 266 340.882 266 340.441 L 266 340 265 340 L 264 340 264 341.059 M 254 345.500 L 254 346 254.500 346 L 255 346 255 345.500 L 255 345 254.500 345 L 254 345 254 345.500 M 209.333 379.667 L 210 380.333 210.667 379.667 L 211.333 379 210 379 L 208.667 379 209.333 379.667 M 212.813 379.683 L 214.125 380.208 214.729 379.604 L 215.333 379 213.417 379.079 L 211.500 379.158 212.813 379.683 M 224.199 379.744 L 232.899 380.076 242.199 379.746 L 251.500 379.415 233.500 379.413 L 215.500 379.411 224.199 379.744 M 254.768 379.725 L 258.036 380.129 260.768 379.715 L 263.500 379.300 257.500 379.310 L 251.500 379.320 254.768 379.725 M 264.333 379.667 L 265 380.333 265.667 379.667 L 266.333 379 265 379 L 263.667 379 264.333 379.667 M 268.813 379.683 L 270.125 380.208 270.729 379.604 L 271.333 379 269.417 379.079 L 267.500 379.158 268.813 379.683 M 272.333 379.667 L 273 380.333 273.667 379.667 L 274.333 379 273 379 L 271.667 379 272.333 379.667 M 276.813 379.683 L 278.125 380.208 278.729 379.604 L 279.333 379 277.417 379.079 L 275.500 379.158 276.813 379.683 M 280.333 379.667 L 281 380.333 281.667 379.667 L 282.333 379 281 379 L 279.667 379 280.333 379.667 M 268 410.707 L 278.500 410.989 298.156 411.244 L 317.812 411.500 317.347 410.750 L 316.882 410 287.191 410.212 L 257.500 410.425 268 410.707 M 317 413.500 L 317 414 317.500 414 L 318 414 318 413.500 L 318 413 317.500 413 L 317 413 317 413.500 M 317.175 419.735 L 317 424.971 286.750 425.251 L 256.500 425.530 286.781 425.765 L 317.063 426 317.594 424.614 L 318.126 423.229 317.738 418.864 L 317.349 414.500 317.175 419.735 M 182 421.500 L 182 422 182.500 422 L 183 422 183 421.500 L 183 421 182.500 421 L 182 421 182 421.500 M 391 422.500 L 391 423 391.500 423 L 392 423 392 422.500 L 392 422 391.500 422 L 391 422 391 422.500 M 183 425.500 L 183 426 183.500 426 L 184 426 184 425.500 L 184 425 183.500 425 L 183 425 183 425.500 M 390 425.500 L 390 426 390.500 426 L 391 426 391 425.500 L 391 425 390.500 425 L 390 425 390 425.500 M 184 427.500 L 184 428 184.500 428 L 185 428 185 427.500 L 185 427 184.500 427 L 184 427 184 427.500 M 389 428.500 L 389 429 389.500 429 L 390 429 390 428.500 L 390 428 389.500 428 L 389 428 389 428.500 M 388 430.500 L 388 431 388.500 431 L 389 431 389 430.500 L 389 430 388.500 430 L 388 430 388 430.500 M 387 432.500 L 387 433 387.500 433 L 388 433 388 432.500 L 388 432 387.500 432 L 387 432 387 432.500 M 187 433.500 L 187 434 187.500 434 L 188 434 188 433.500 L 188 433 187.500 433 L 187 433 187 433.500 M 385 435.500 L 385 436 385.500 436 L 386 436 386 435.500 L 386 435 385.500 435 L 385 435 385 435.500 M 189 436.500 L 189 437 189.500 437 L 190 437 190 436.500 L 190 436 189.500 436 L 189 436 189 436.500 M 383 438.500 L 383 439 383.500 439 L 384 439 384 438.500 L 384 438 383.500 438 L 383 438 383 438.500 M 192 440.313 L 192 440.626 195.250 443.563 L 198.500 446.500 195.563 443.250 L 192.626 440 192.313 440 L 192 440 192 440.313 M 379 443.500 L 379 444 379.500 444 L 380 444 380 443.500 L 380 443 379.500 443 L 379 443 379 443.500 M 374 447.500 L 374 448 374.500 448 L 375 448 375 447.500 L 375 447 374.500 447 L 374 447 374 447.500 M 201 448.500 L 201 449 201.500 449 L 202 449 202 448.500 L 202 448 201.500 448 L 201 448 201 448.500 M 371 449.500 L 371 450 371.500 450 L 372 450 372 449.500 L 372 449 371.500 449 L 371 449 371 449.500 M 204 450.500 L 204 451 204.500 451 L 205 451 205 450.500 L 205 450 204.500 450 L 204 450 204 450.500 M 206 451.500 L 206 452 206.500 452 L 207 452 207 451.500 L 207 451 206.500 451 L 206 451 206 451.500 M 368 451.500 L 368 452 368.500 452 L 369 452 369 451.500 L 369 451 368.500 451 L 368 451 368 451.500 M 208 452.500 L 208 453 208.500 453 L 209 453 209 452.500 L 209 452 208.500 452 L 208 452 208 452.500 M 366 452.500 L 366 453 366.500 453 L 367 453 367 452.500 L 367 452 366.500 452 L 366 452 366 452.500 M 363 453.500 L 363 454 363.500 454 L 364 454 364 453.500 L 364 453 363.500 453 L 363 453 363 453.500 M 214 454.500 L 214 455 214.500 455 L 215 455 215 454.500 L 215 454 214.500 454 L 214 454 214 454.500 M 360 454.500 L 360 455 360.500 455 L 361 455 361 454.500 L 361 454 360.500 454 L 360 454 360 454.500 M 217.333 455.667 L 218 456.333 218.667 455.667 L 219.333 455 218 455 L 216.667 455 217.333 455.667 M 355.333 455.667 L 356 456.333 356.667 455.667 L 357.333 455 356 455 L 354.667 455 355.333 455.667" stroke="none" fill="#f9b81d" fill-rule="evenodd"/><path d="M 414.991 67.199 L 412.556 68.100 411.848 69.246 L 411.140 70.392 412.049 72.091 L 412.958 73.791 418.229 75.092 L 423.500 76.393 424.500 76.529 L 425.500 76.665 428.750 77.457 L 432 78.250 432 78.924 L 432 79.598 435.750 80.940 L 439.500 82.281 442.102 84.977 L 444.705 87.673 446.352 88.305 L 448 88.937 448 89.863 L 448 90.788 450.861 93.851 L 453.721 96.913 455.054 100.207 L 456.386 103.500 457.006 104 L 457.625 104.500 459.256 110 L 460.887 115.500 461.330 121.851 L 461.773 128.202 463.207 129.636 L 464.641 131.070 467.455 128.857 L 470.269 126.643 469.666 119.072 L 469.062 111.500 466.039 103.706 L 463.015 95.912 457.594 89.118 L 452.172 82.323 449.021 79.671 L 445.870 77.019 440.090 73.632 L 434.311 70.245 427.405 68.593 L 420.500 66.941 418.963 66.620 L 417.425 66.298 414.991 67.199 M 411.667 84.667 L 411 85.333 411 87.012 L 411 88.690 412.750 90.240 L 414.500 91.790 418.627 92.348 L 422.755 92.907 427.377 95.153 L 432 97.399 432 98.583 L 432 99.767 434 100.290 L 436 100.813 436 102.406 L 436 104 437.338 104 L 438.675 104 441.294 109.348 L 443.913 114.697 444.599 121.389 L 445.285 128.082 447.077 129.041 L 448.869 130 449.959 130 L 451.050 130 452.015 127.460 L 452.981 124.919 451.990 117.930 L 450.999 110.941 448.085 105.220 L 445.171 99.500 440.835 95.404 L 436.500 91.308 433 89.266 L 429.500 87.225 423.846 85.613 L 418.192 84 415.263 84 L 412.333 84 411.667 84.667 M 410.667 100.667 L 410 101.333 410 103.238 L 410 105.143 411.429 106.571 L 412.857 108 414.895 108 L 416.932 108 420.228 109.572 L 423.524 111.143 425.762 114.558 L 428 117.972 428.006 119.236 L 428.011 120.500 429.053 124.250 L 430.094 128 433.047 128 L 436 128 436 122.816 L 436 117.631 433.807 113.102 L 431.615 108.573 429.057 106.308 L 426.500 104.042 421.212 102.021 L 415.925 100 413.629 100 L 411.333 100 410.667 100.667 M 410.250 119.220 L 408 120.306 408 122.068 L 408 123.830 410.202 126.302 L 412.403 128.773 414.452 127.839 L 416.500 126.905 417.686 124.389 L 418.872 121.872 416.936 119.936 L 415 118 413.750 118.068 L 412.500 118.135 410.250 119.220 M 328 199.500 L 328 200 328.500 200 L 329 200 329 199.500 L 329 199 328.500 199 L 328 199 328 199.500 M 284 316.500 L 284 317 284.500 317 L 285 317 285 316.500 L 285 316 284.500 316 L 284 316 284 316.500" stroke="none" fill="#f8c700" fill-rule="evenodd"/><path d="M 214 121.886 L 208.500 123.664 204.500 125.727 L 200.500 127.789 194.715 133.857 L 188.930 139.925 185.715 146.712 L 182.500 153.500 182.500 288.500 L 182.500 423.500 185.362 429.333 L 188.224 435.166 194.043 441.386 L 199.861 447.607 205.031 450.420 L 210.200 453.234 215.350 454.605 L 220.500 455.976 287.040 455.988 L 353.580 456 359.540 454.458 L 365.500 452.915 370.860 449.708 L 376.220 446.500 380.589 441.665 L 384.958 436.830 388.229 430.186 L 391.500 423.542 391.500 288 L 391.500 152.458 388.071 145.479 L 384.642 138.500 379.519 133.500 L 374.395 128.500 369.097 125.633 L 363.800 122.766 358.650 121.395 L 353.500 120.024 286.500 120.066 L 219.500 120.108 214 121.886 M 208.245 272.750 L 208.500 379.500 287.500 379.500 L 366.500 379.500 366.755 272.750 L 367.009 166 287.500 166 L 207.991 166 208.245 272.750 M 267.248 203.123 L 262.995 205.078 261.661 207.289 L 260.327 209.500 252.493 245.246 L 244.659 280.993 245.291 281.624 L 245.923 282.256 255.259 282.082 L 264.596 281.908 266.241 282.539 L 267.886 283.170 266.836 285.835 L 265.787 288.500 257.975 313.380 L 250.163 338.261 250.659 339.553 L 251.155 340.845 252.663 341.424 L 254.171 342.003 259.335 339.210 L 264.500 336.418 276.141 320.959 L 287.781 305.500 309.338 276.531 L 330.895 247.562 330.526 247.193 L 330.156 246.823 313.578 246.950 L 297 247.077 297 246.398 L 297 245.719 308.225 228.110 L 319.450 210.500 321.725 207.110 L 324 203.721 324 202.360 L 324 201 297.750 201.084 L 271.500 201.169 267.248 203.123 M 274.341 204.143 L 273.259 205.500 265.718 239.489 L 258.177 273.477 258.648 274.239 L 259.118 275 270.059 275 L 281 275 281 275.659 L 281 276.318 275.522 293.909 L 270.043 311.500 266.593 322.500 L 263.142 333.500 266.610 329.500 L 270.077 325.500 297.635 288.500 L 325.192 251.500 325.703 250.250 L 326.214 249 309.500 249 L 292.786 249 293.313 247.626 L 293.840 246.253 306.444 226.646 L 319.048 207.040 319.631 205.520 L 320.214 204 302.247 204 L 284.279 204 279.851 203.393 L 275.422 202.786 274.341 204.143 M 257.681 410.652 L 257 411.333 257 418.681 L 257 426.029 287.250 425.765 L 317.500 425.500 317.500 418 L 317.500 410.500 287.931 410.235 L 258.363 409.971 257.681 410.652" stroke="none" fill="#050505" fill-rule="evenodd"/><path d="M 0 288.002 L 0 576.003 288.250 575.752 L 576.500 575.500 576.752 287.750 L 577.003 0 288.502 0 L 0 0 0 288.002 M 0.493 288.500 L 0.493 576.500 0.750 432.169 L 1.007 287.838 0.750 144.169 L 0.493 0.500 0.493 288.500 M 414 66.729 L 412.500 67.300 411.765 68.400 L 411.031 69.500 411.015 70.750 L 411 72 413 74 L 415 76 418.343 76 L 421.687 76 427.514 78.005 L 433.340 80.009 437.420 82.409 L 441.500 84.808 446.287 89.540 L 451.075 94.271 453.533 98.466 L 455.991 102.660 458.006 108.517 L 460.021 114.373 460.647 121.437 L 461.272 128.500 462.259 129.750 L 463.245 131 464.512 131 L 465.778 131 468.034 129.173 L 470.290 127.347 470.103 119.954 L 469.917 112.561 467.513 105.650 L 465.109 98.738 461.390 93.119 L 457.670 87.500 452.053 81.989 L 446.437 76.477 439.365 72.761 L 432.294 69.045 425.897 67.537 L 419.500 66.030 417.500 66.094 L 415.500 66.158 414 66.729 M 411.200 84.200 L 410 85.400 410.015 86.950 L 410.031 88.500 410.858 89.804 L 411.684 91.107 417.549 92.639 L 423.414 94.170 427.259 96.132 L 431.104 98.094 435.471 102.524 L 439.839 106.955 441.920 112.515 L 444 118.075 444 122.466 L 444 126.857 445.626 128.483 L 447.251 130.109 449.876 129.804 L 452.500 129.500 452.468 121.500 L 452.435 113.500 449.329 106.877 L 446.224 100.253 442.508 96.141 L 438.793 92.028 433.646 89.096 L 428.500 86.164 422.356 84.582 L 416.211 83 414.306 83 L 412.400 83 411.200 84.200 M 410.750 100.080 L 409 101.099 409 103.427 L 409 105.755 410.250 106.747 L 411.500 107.739 415.221 108.409 L 418.941 109.080 422.006 111.659 L 425.072 114.238 426.536 117.069 L 428 119.901 428 122.516 L 428 125.131 429.035 127.066 L 430.070 129 433.016 129 L 435.962 129 436.601 126.453 L 437.241 123.906 436.569 119.703 L 435.897 115.500 433.426 111.284 L 430.955 107.068 427.523 104.450 L 424.090 101.831 419.386 100.416 L 414.682 99 413.591 99.030 L 412.500 99.061 410.750 100.080 M 410.223 118.557 L 408 120.113 408 122.557 L 408 125 410 127 L 412 129 413.326 129 L 414.651 129 416.826 126.686 L 419 124.371 419 122.860 L 419 121.349 416.686 119.174 L 414.371 117 413.408 117 L 412.445 117 410.223 118.557 M 214.465 121.473 L 210.429 122.749 205.048 125.475 L 199.667 128.202 194.519 133.351 L 189.371 138.500 185.935 145.479 L 182.500 152.458 182.500 288.479 L 182.500 424.500 184.876 429 L 187.251 433.500 190.814 438.391 L 194.377 443.282 200.161 447.540 L 205.946 451.798 212.167 453.899 L 218.388 456 287.089 456 L 355.789 456 362.145 454.003 L 368.500 452.006 374.082 447.835 L 379.665 443.665 383.826 438.082 L 387.986 432.500 390.243 427 L 392.500 421.500 392.500 287.925 L 392.500 154.349 388.286 145.845 L 384.072 137.341 379.271 132.851 L 374.471 128.360 369.749 125.593 L 365.028 122.826 359.764 121.425 L 354.500 120.024 286.500 120.111 L 218.500 120.198 214.465 121.473 M 208 272.500 L 208 379 287 379 L 366 379 366 272.500 L 366 166 287 166 L 208 166 208 272.500 M 264.102 198.532 L 259.703 200.853 257.879 202.677 L 256.054 204.501 253.055 218.001 L 250.056 231.500 244.528 256.736 L 239 281.972 239 283.363 L 239 284.755 240.648 286.128 L 242.296 287.500 250.898 288 L 259.500 288.500 259.347 290.500 L 259.194 292.500 253.556 310 L 247.917 327.500 246.049 334.156 L 244.180 340.811 245.626 342.877 L 247.073 344.943 251.061 346.016 L 255.049 347.090 261.051 344.396 L 267.054 341.703 269.777 338.485 L 272.500 335.268 288.500 313.565 L 304.500 291.862 320.271 270.681 L 336.041 249.500 336.671 247.081 L 337.302 244.663 335.040 242.831 L 332.778 241 320.389 241 L 308 241 308 239.398 L 308 237.795 318.592 221.720 L 329.184 205.645 330.092 203.257 L 331 200.869 330.028 199.052 L 329.056 197.235 327.446 196.618 L 325.836 196 297.168 196.106 L 268.500 196.211 264.102 198.532 M 273.595 205.750 L 273.056 207.500 266.028 239.234 L 259 270.969 259 272.484 L 259 274 269.941 274 L 280.882 274 281.290 274.750 L 281.697 275.500 272.882 303.450 L 264.068 331.401 264.367 331.700 L 264.666 332 295.083 291.349 L 325.500 250.697 325.825 249.873 L 326.151 249.048 309.150 248.774 L 292.150 248.500 306.024 227 L 319.899 205.500 319.949 204.750 L 320 204 297.067 204 L 274.135 204 273.595 205.750 M 257 418 L 257 425 287 425 L 317 425 317 418 L 317 411 287 411 L 257 411 257 418" stroke="none" fill="#f1efed" fill-rule="evenodd"/></svg>